# xmcd
#
# Track frame offsets:
#	150
#	13293
#	26493
#	43693
#	57525
#	72470
#	85765
#	98308
#	117275
#	130575
#	145643
#
# Disc length: 2128 seconds
#
# Revision: 0
# Processed by: cddbd v1.4PL0 Copyright (c) Steve Scherf et al.
# Submitted via: dBpowerAMP V4.0
#
DISCID=8d084e0b
DTITLE=Sigge Hill - All världens sorger
DYEAR=1900
DGENRE=Country
TTITLE0=Hej gamla väg
TTITLE1=Ah ! Louise
TTITLE2=Kött and blod
TTITLE3=Vänliga veckan
TTITLE4=Ett färgfotografi
TTITLE5=All världens sorger
TTITLE6=Be för mig
TTITLE7=En trist historia
TTITLE8=För sent
TTITLE9=En rullande sten
TTITLE10=Sensommarvisa
EXTD=
EXTT0=
EXTT1=
EXTT2=
EXTT3=
EXTT4=
EXTT5=
EXTT6=
EXTT7=
EXTT8=
EXTT9=
EXTT10=
PLAYORDER=
